REM MD5 b58b6434bdab89d38877c3a35c506349
FILE "PlayStation Kiosk Demo Disc Version 1.17 (USA).bin" BINARY
  TRACK 01 MODE2/2352
    INDEX 01 00:00:00
  TRACK 02 AUDIO
    INDEX 00 42:57:29
    INDEX 01 42:59:29
  TRACK 03 AUDIO
    INDEX 00 45:13:30
    INDEX 01 45:15:30
REM LEADOUT 45:21:26
